# xmcd
#
# Track frame offsets:
#	150
#	18350
#	34660
#	47162
#	58177
#	69857
#	87340
#	107077
#	121195
#	134240
#	155722
#	177545
#	188887
#	202652
#
# Disc length: 2904
#
# Revision: 1
# Processed by: cddbd v1.5.1PL0 Copyright (c) Steve Scherf et al.
# Submitted via: ExactAudioCopy v0.95a5
# Normalized: r0:TDELIM( - ),TSWAP
#
DISCID=c40b560e
DTITLE=Various Artist - Country Rock At It's Best [CD1)
DYEAR=1992
DGENRE=Country
TTITLE0=James Blundell and James Reyne - Way Out West
TTITLE1=Charlie Daniels Band - The Devil Went Down to georgia
TTITLE2=Lee Kernaghan - Boys From the bush
TTITLE3=Willie Nelson - On the road again
TTITLE4=Dolly Parton - Baby I'm Burning
TTITLE5=Black Sorrows - Harley and Rose
TTITLE6=Alabama - Roll on eighteen wheeler
TTITLE7=Eddie Rabbit - I love a rainy night
TTITLE8=LIttle River band - down on the border
TTITLE9=Neville Brothers - Fly like an eagle
TTITLE10=tom Petty and the heartbreakers - Louisiana Rain
TTITLE11=Ricky Van Shelton - Hole in my pocket
TTITLE12=Olivia Newton-John - Let me be there
TTITLE13=Nitty Gritty Dirt Band - Jambalaya (pn the bayou)
EXTD=
EXTT0=
EXTT1=
EXTT2=
EXTT3=
EXTT4=
EXTT5=
EXTT6=
EXTT7=
EXTT8=
EXTT9=
EXTT10=
EXTT11=
EXTT12=
EXTT13=
PLAYORDER=
